emg_normalized.mot
version=1
nRows=71
nColumns=17
in_degrees=yes
endheader
time	VM	VL	RF	GRA	TA	ADDLONG	SEMIMEM	BFLH	GM	GL	TFL	GLUTMAX	GLUTMED	PIRI	OBTINT	QF
3.315000	0.004584	0.005146	0.419633	0.124146	0.276014	0.032380	0.000000	0.000000	0.019460	0.010222	0.490878	0.069022	0.602864	0.115686	0.771754	0.335831
3.315500	0.004558	0.005131	0.417135	0.123552	0.274589	0.032154	0.000000	0.000000	0.019400	0.010192	0.488347	0.068699	0.597419	0.114661	0.770618	0.335912
3.316000	0.004533	0.005116	0.414571	0.122967	0.273159	0.031924	0.000000	0.000000	0.019342	0.010165	0.485803	0.068390	0.591997	0.113675	0.769444	0.335873
3.316500	0.004508	0.005101	0.411950	0.122392	0.271725	0.031690	0.000000	0.000000	0.019282	0.010136	0.483248	0.068096	0.586606	0.112721	0.768232	0.335714
3.317000	0.004483	0.005086	0.409268	0.121832	0.270288	0.031453	0.000000	0.000000	0.019224	0.010110	0.480688	0.067817	0.581249	0.111801	0.766984	0.335438
3.317500	0.004459	0.005071	0.406524	0.121280	0.268848	0.031211	0.000000	0.000000	0.019167	0.010082	0.478124	0.067550	0.575933	0.110917	0.765699	0.335048
3.318000	0.004437	0.005057	0.403719	0.120745	0.267406	0.030968	0.000000	0.000000	0.019111	0.010056	0.475561	0.067302	0.570654	0.110068	0.764377	0.334547
3.318500	0.004414	0.005044	0.400860	0.120223	0.265959	0.030719	0.000000	0.000000	0.019055	0.010031	0.473001	0.067066	0.565419	0.109254	0.763019	0.333938
3.319000	0.004392	0.005028	0.397940	0.119718	0.264511	0.030469	0.000000	0.000000	0.018998	0.010006	0.470448	0.066846	0.560231	0.108471	0.761627	0.333227
3.319500	0.004372	0.005015	0.394967	0.119230	0.263059	0.030215	0.000000	0.000000	0.018944	0.009982	0.467904	0.066642	0.555098	0.107728	0.760199	0.332418
3.320000	0.004350	0.005002	0.391940	0.118762	0.261604	0.029959	0.000000	0.000000	0.018891	0.009959	0.465372	0.066453	0.550016	0.107020	0.758738	0.331513
3.320500	0.004332	0.004988	0.388857	0.118310	0.260147	0.029701	0.000000	0.000000	0.018837	0.009935	0.462855	0.066279	0.544989	0.106347	0.757244	0.330518
3.321000	0.004313	0.004976	0.385720	0.117884	0.258687	0.029439	0.000000	0.000000	0.018786	0.009914	0.460354	0.066122	0.540022	0.105709	0.755715	0.329437
3.321500	0.004294	0.004962	0.382533	0.117476	0.257225	0.029176	0.000000	0.000000	0.018733	0.009893	0.457873	0.065980	0.535116	0.105106	0.754155	0.328272
3.322000	0.004277	0.004949	0.379294	0.117092	0.255761	0.028911	0.000000	0.000000	0.018682	0.009872	0.455414	0.065854	0.530275	0.104543	0.752563	0.327029
3.322500	0.004259	0.004938	0.376005	0.116732	0.254293	0.028643	0.000000	0.000000	0.018633	0.009851	0.452978	0.065744	0.525502	0.104011	0.750938	0.325712
3.323000	0.004244	0.004926	0.372668	0.116397	0.252824	0.028375	0.000000	0.000000	0.018584	0.009833	0.450568	0.065650	0.520797	0.103518	0.749281	0.324323
3.323500	0.004228	0.004914	0.369281	0.116091	0.251351	0.028105	0.000000	0.000000	0.018535	0.009814	0.448184	0.065572	0.516163	0.103056	0.747593	0.322868
3.324000	0.004214	0.004902	0.365853	0.115809	0.249876	0.027833	0.000000	0.000000	0.018488	0.009796	0.445830	0.065510	0.511604	0.102634	0.745874	0.321350
3.324500	0.004199	0.004890	0.362384	0.115558	0.248399	0.027559	0.000000	0.000000	0.018442	0.009778	0.443506	0.065463	0.507119	0.102246	0.744123	0.319773
3.325000	0.004187	0.004880	0.358871	0.115335	0.246918	0.027287	0.000000	0.000000	0.018397	0.009762	0.441214	0.065433	0.502712	0.101894	0.742340	0.318140
3.325500	0.004174	0.004869	0.355320	0.115143	0.245434	0.027011	0.000000	0.000330	0.018352	0.009746	0.438956	0.065420	0.498387	0.101577	0.740524	0.316458
3.326000	0.004162	0.004859	0.351732	0.114981	0.243948	0.026736	0.000000	0.000894	0.018308	0.009731	0.436731	0.065422	0.494140	0.101299	0.738675	0.314726
3.326500	0.004152	0.004849	0.348112	0.114855	0.242458	0.026459	0.000000	0.001486	0.018266	0.009717	0.434542	0.065440	0.489978	0.101053	0.736790	0.312952
3.327000	0.004140	0.004839	0.344459	0.114761	0.240965	0.026183	0.000000	0.002112	0.018224	0.009704	0.432388	0.065474	0.485905	0.100846	0.734870	0.311139
3.327500	0.004132	0.004830	0.340773	0.114699	0.239468	0.025907	0.000000	0.002771	0.018183	0.009691	0.430272	0.065524	0.481912	0.100669	0.732915	0.309289
3.328000	0.004123	0.004820	0.337063	0.114674	0.237968	0.025628	0.000000	0.003465	0.018143	0.009679	0.428192	0.065591	0.478008	0.100529	0.730920	0.307407
3.328500	0.004114	0.004811	0.333324	0.114685	0.236463	0.025352	0.000000	0.004193	0.018105	0.009668	0.426151	0.065673	0.474192	0.100427	0.728884	0.305498
3.329000	0.004107	0.004803	0.329560	0.114735	0.234954	0.025075	0.000000	0.004957	0.018066	0.009657	0.424148	0.065771	0.470468	0.100356	0.726807	0.303563
3.329500	0.004100	0.004795	0.325776	0.114822	0.233442	0.024796	0.000000	0.005757	0.018030	0.009647	0.422184	0.065885	0.466832	0.100317	0.724686	0.301606
3.330000	0.004095	0.004786	0.321971	0.114947	0.231923	0.024520	0.000000	0.006592	0.017994	0.009637	0.420258	0.066014	0.463285	0.100317	0.722520	0.299632
3.330500	0.004090	0.004779	0.318146	0.115112	0.230401	0.024243	0.000000	0.007466	0.017959	0.009629	0.418370	0.066160	0.459832	0.100349	0.720306	0.297643
3.331000	0.004085	0.004771	0.314305	0.115318	0.228873	0.023967	0.000000	0.008377	0.017925	0.009621	0.416521	0.066320	0.456471	0.100415	0.718044	0.295642
3.331500	0.004083	0.004764	0.310447	0.115566	0.227340	0.023692	0.000000	0.009328	0.017890	0.009615	0.414711	0.066496	0.453202	0.100513	0.715728	0.293634
3.332000	0.004080	0.004757	0.306577	0.115854	0.225803	0.023416	0.000000	0.010317	0.017857	0.009608	0.412939	0.066688	0.450024	0.100646	0.713360	0.291621
3.332500	0.004078	0.004750	0.302691	0.116185	0.224261	0.023141	0.000000	0.011346	0.017827	0.009602	0.411204	0.066896	0.446942	0.100810	0.710937	0.289606
3.333000	0.004078	0.004744	0.298796	0.116562	0.222713	0.022868	0.000000	0.012415	0.017796	0.009597	0.409507	0.067119	0.443954	0.101010	0.708454	0.287592
3.333500	0.004078	0.004739	0.294893	0.116983	0.221161	0.022596	0.001160	0.013528	0.017767	0.009592	0.407846	0.067357	0.441059	0.101237	0.705913	0.285580
3.334000	0.004078	0.004732	0.290982	0.117451	0.219605	0.022323	0.002503	0.014682	0.017736	0.009589	0.406222	0.067610	0.438258	0.101499	0.703309	0.283577
3.334500	0.004080	0.004727	0.287067	0.117962	0.218044	0.022053	0.003899	0.015879	0.017708	0.009585	0.404632	0.067879	0.435552	0.101788	0.700640	0.281582
3.335000	0.004083	0.004722	0.283144	0.118522	0.216478	0.021783	0.005345	0.017118	0.017679	0.009582	0.403077	0.068161	0.432938	0.102113	0.697905	0.279599
3.335500	0.004085	0.004717	0.279220	0.119130	0.214908	0.021516	0.006843	0.018403	0.017654	0.009581	0.401555	0.068459	0.430419	0.102465	0.695099	0.277631
3.336000	0.004090	0.004712	0.275297	0.119788	0.213333	0.021248	0.008395	0.019731	0.017627	0.009577	0.400065	0.068773	0.427992	0.102849	0.692223	0.275678
3.336500	0.004095	0.004709	0.271378	0.120494	0.211754	0.020983	0.010000	0.021106	0.017601	0.009577	0.398607	0.069100	0.425660	0.103260	0.689273	0.273747
3.337000	0.004100	0.004705	0.267458	0.121252	0.210171	0.020719	0.011662	0.022527	0.017576	0.009576	0.397177	0.069442	0.423422	0.103702	0.686248	0.271834
3.337500	0.004108	0.004701	0.263543	0.122061	0.208582	0.020458	0.013378	0.023994	0.017552	0.009576	0.395777	0.069798	0.421273	0.104175	0.683147	0.269948
3.338000	0.004115	0.004699	0.259640	0.122919	0.206990	0.020197	0.015153	0.025509	0.017529	0.009576	0.394403	0.070169	0.419220	0.104672	0.679972	0.268085
3.338500	0.004123	0.004696	0.255742	0.123834	0.205394	0.019938	0.016985	0.027072	0.017507	0.009576	0.393055	0.070553	0.417254	0.105200	0.676718	0.266251
3.339000	0.004133	0.004693	0.251855	0.124802	0.203793	0.019682	0.018875	0.028685	0.017483	0.009576	0.391732	0.070951	0.415380	0.105752	0.673387	0.264447
3.339500	0.004143	0.004691	0.247981	0.125825	0.202188	0.019429	0.020826	0.030345	0.017463	0.009577	0.390432	0.071363	0.413594	0.106335	0.669980	0.262673
3.340000	0.004154	0.004690	0.244119	0.126901	0.200578	0.019176	0.022837	0.032058	0.017441	0.009579	0.389153	0.071789	0.411897	0.106941	0.666497	0.260934
3.340500	0.004167	0.004690	0.240278	0.128036	0.198963	0.018927	0.024910	0.033820	0.017421	0.009581	0.387895	0.072228	0.410291	0.107575	0.662939	0.259231
3.341000	0.004180	0.004688	0.236449	0.129230	0.197345	0.018679	0.027046	0.035635	0.017401	0.009582	0.386656	0.072681	0.408770	0.108237	0.659308	0.257562
3.341500	0.004194	0.004688	0.232636	0.130479	0.195723	0.018435	0.029244	0.037502	0.017383	0.009585	0.385433	0.073145	0.407338	0.108925	0.655605	0.255934
3.342000	0.004209	0.004690	0.228848	0.131787	0.194096	0.018192	0.031507	0.039423	0.017363	0.009587	0.384228	0.073624	0.405990	0.109637	0.651836	0.254344
3.342500	0.004225	0.004691	0.225076	0.133156	0.192467	0.017953	0.033835	0.041396	0.017347	0.009590	0.383036	0.074115	0.404727	0.110377	0.648001	0.252795
3.343000	0.004243	0.004693	0.221329	0.134586	0.190835	0.017715	0.036231	0.043423	0.017329	0.009593	0.381859	0.074617	0.403549	0.111140	0.644105	0.251291
3.343500	0.004262	0.004695	0.217606	0.136078	0.189200	0.017481	0.038693	0.045506	0.017312	0.009595	0.380695	0.075132	0.402452	0.111930	0.640153	0.249828
3.344000	0.004280	0.004699	0.213904	0.137631	0.187563	0.017250	0.041222	0.047643	0.017296	0.009598	0.379543	0.075659	0.401441	0.112744	0.636147	0.248412
3.344500	0.004300	0.004702	0.210234	0.139249	0.185925	0.017021	0.043822	0.049837	0.017282	0.009602	0.378401	0.076198	0.400507	0.113585	0.632093	0.247041
3.345000	0.004323	0.004706	0.206589	0.140927	0.184287	0.016796	0.046490	0.052088	0.017267	0.009605	0.377269	0.076749	0.399655	0.114450	0.627992	0.245718
3.345500	0.004345	0.004711	0.202973	0.142673	0.182648	0.016573	0.049229	0.054398	0.017252	0.009608	0.376147	0.077310	0.398884	0.115338	0.623853	0.244442
3.346000	0.004369	0.004717	0.199386	0.144482	0.181009	0.016353	0.052041	0.056764	0.017240	0.009613	0.375033	0.077882	0.398192	0.116254	0.619675	0.243215
3.346500	0.004393	0.004724	0.195831	0.146356	0.179371	0.016137	0.054924	0.059189	0.017227	0.009616	0.373926	0.078466	0.397574	0.117193	0.615463	0.242038
3.347000	0.004419	0.004731	0.192305	0.148300	0.177735	0.015923	0.057880	0.061674	0.017216	0.009619	0.372824	0.079060	0.397034	0.118159	0.611221	0.240912
3.347500	0.004447	0.004740	0.188816	0.150307	0.176100	0.015713	0.060911	0.064218	0.017205	0.009623	0.371727	0.079665	0.396569	0.119149	0.606952	0.239837
3.348000	0.004474	0.004749	0.185359	0.152382	0.174470	0.015506	0.064016	0.066823	0.017194	0.009626	0.370632	0.080279	0.396179	0.120162	0.602659	0.238815
3.348500	0.004504	0.004759	0.181935	0.154526	0.172843	0.015302	0.067197	0.069490	0.017185	0.009627	0.369539	0.080904	0.395860	0.121203	0.598346	0.237844
3.349000	0.004534	0.004769	0.178549	0.156740	0.171220	0.015102	0.070454	0.072218	0.017174	0.009631	0.368447	0.081539	0.395612	0.122267	0.594015	0.236925
3.349500	0.004566	0.004781	0.175199	0.159021	0.169601	0.014905	0.073789	0.075006	0.017167	0.009634	0.367353	0.082182	0.395432	0.123359	0.589670	0.236059
3.350000	0.004599	0.004794	0.171885	0.161369	0.167989	0.014712	0.077202	0.077859	0.017158	0.009636	0.366256	0.082836	0.395320	0.124474	0.585312	0.235248
